<!--?xml version="1.0" standalone="no"?-->
              <svg id="sw-js-blob-svg" viewBox="0 0 100 100" xmlns="http://www.w3.org/2000/svg" version="1.1">
                    <defs> 
                        <linearGradient id="sw-gradient" x1="0" x2="1" y1="1" y2="0">
                            <stop id="stop1" stop-color="rgba(182.944, 5.838, 255, 1)" offset="0%"></stop>
                            <stop id="stop2" stop-color="rgba(207.853, 235.772, 2.735, 1)" offset="100%"></stop>
                        </linearGradient>
                    </defs>
                <path fill="none" d="M19.4,-27.4C25.6,-26.1,31.6,-21.6,33.8,-15.8C35.9,-9.9,34.2,-2.6,31.2,3C28.1,8.7,23.7,12.7,19.1,14.7C14.5,16.7,9.7,16.8,4.4,21.2C-0.9,25.5,-6.8,34.3,-9.2,32.8C-11.6,31.4,-10.5,19.8,-15.8,13.7C-21,7.6,-32.5,7,-35.7,3.4C-38.8,-0.1,-33.6,-6.5,-30.7,-14.5C-27.8,-22.5,-27.2,-32,-22.5,-33.9C-17.8,-35.9,-8.9,-30.3,-1.2,-28.5C6.5,-26.7,13.1,-28.6,19.4,-27.4Z" width="100%" height="100%" transform="translate(50 50)" stroke-width="1" style="transition: 0.3s;" stroke="url(#sw-gradient)"></path>
              </svg>