<?xml version="1.0" encoding="utf-8"?>
<!-- Generator: Adobe Illustrator 27.0.0, SVG Export Plug-In . SVG Version: 6.00 Build 0)  -->
<svg version="1.1" id="Layer_1" xmlns="http://www.w3.org/2000/svg" xmlns:xlink="http://www.w3.org/1999/xlink" x="0px" y="0px"
	 viewBox="0 0 1080 1080" style="enable-background:new 0 0 1080 1080;" xml:space="preserve">
<style type="text/css">
	.st0{fill:#680DF5;}
</style>
<g>
	<path d="M326.2,490.48c-0.49,2.7-1.37,5.11-2.63,7.22c-1.26,2.11-2.84,3.9-4.74,5.37c-1.9,1.47-4.07,2.58-6.51,3.34
		c-2.44,0.76-5.09,1.14-7.94,1.14c-5.08,0-9.55-1.25-13.42-3.76s-6.87-6.22-9.02-11.13s-3.22-10.98-3.22-18.2
		c0-7.02,1.06-13,3.19-17.93c2.13-4.93,5.13-8.69,9-11.28c3.87-2.59,8.41-3.88,13.62-3.88c2.88,0,5.56,0.41,8.04,1.24
		c2.47,0.82,4.66,2.01,6.56,3.56c1.9,1.55,3.46,3.42,4.67,5.61s2.02,4.69,2.41,7.49h21.53c-0.69-5.87-2.25-11.08-4.69-15.63
		c-2.44-4.55-5.6-8.4-9.46-11.55c-3.87-3.15-8.3-5.55-13.3-7.2c-5-1.65-10.41-2.47-16.25-2.47c-8.85,0-16.81,2.04-23.89,6.11
		c-7.08,4.07-12.68,9.98-16.81,17.73c-4.13,7.75-6.19,17.15-6.19,28.2c0,11.01,2.04,20.4,6.12,28.15
		c4.08,7.75,9.65,13.67,16.71,17.76c7.06,4.09,15.08,6.13,24.06,6.13c6.46,0,12.25-0.98,17.38-2.94c5.13-1.96,9.55-4.63,13.27-8.01
		c3.72-3.38,6.69-7.22,8.9-11.53c2.21-4.3,3.6-8.78,4.15-13.43L326.2,490.48z"/>
	<path d="M409.91,453.26c-0.92-0.22-1.98-0.4-3.19-0.52c-1.21-0.13-2.34-0.19-3.39-0.19c-4.23,0-7.96,1.16-11.21,3.49
		c-3.24,2.33-5.55,5.75-6.93,10.27h-0.79v-12.72h-20.3v72.9h20.94v-41.24c0-2.97,0.7-5.6,2.09-7.88c1.39-2.28,3.29-4.06,5.7-5.34
		c2.41-1.28,5.15-1.92,8.23-1.92c1.44,0,3.03,0.11,4.77,0.33c1.74,0.22,3.1,0.47,4.08,0.76V453.26z"/>
	<path d="M483.96,460.43c-3.23-3.07-7-5.37-11.31-6.91c-4.31-1.53-8.95-2.3-13.94-2.3c-7.41,0-13.85,1.58-19.34,4.75
		c-5.49,3.16-9.74,7.58-12.76,13.24c-3.01,5.66-4.52,12.24-4.52,19.74c0,7.69,1.51,14.34,4.52,19.96c3.01,5.62,7.32,9.95,12.9,13
		c5.59,3.05,12.27,4.58,20.03,4.58c6.23,0,11.72-0.92,16.49-2.78c4.77-1.85,8.67-4.44,11.7-7.78c3.03-3.34,5.04-7.25,6.02-11.75
		l-19.37-1.23c-0.72,1.84-1.77,3.39-3.15,4.65c-1.38,1.27-3.03,2.21-4.96,2.85c-1.93,0.63-4.06,0.95-6.39,0.95
		c-3.51,0-6.54-0.71-9.09-2.14c-2.56-1.42-4.53-3.45-5.92-6.07c-1.39-2.63-2.09-5.74-2.09-9.35v-0.05h51.42v-5.55
		c0-6.2-0.9-11.62-2.7-16.25C489.7,467.35,487.18,463.5,483.96,460.43z M442.84,481.26c0.13-2.61,0.8-5.02,2.07-7.19
		c1.38-2.36,3.29-4.24,5.73-5.65c2.44-1.41,5.25-2.11,8.43-2.11c3.05,0,5.73,0.64,8.04,1.92c2.31,1.28,4.12,3.05,5.43,5.29
		c1.31,2.25,1.97,4.82,1.97,7.74H442.84z"/>
	<path d="M567.63,455.97c-3.9-2.21-8.47-3.32-13.71-3.32c-5.6,0-10.37,1.24-14.31,3.73c-3.93,2.48-6.73,5.85-8.41,10.08h-0.88
		v-12.86h-19.96v72.9h20.94v-42.14c0.03-3.13,0.65-5.81,1.84-8.04c1.2-2.23,2.87-3.93,5.01-5.1c2.15-1.17,4.63-1.76,7.45-1.76
		c4.19,0,7.49,1.26,9.88,3.77c2.39,2.51,3.57,6,3.54,10.46v42.81h20.94v-46.41c0-5.66-1.08-10.54-3.25-14.64
		C574.57,461.34,571.53,458.18,567.63,455.97z"/>
	<path d="M610.46,422.41c-3.11,0-5.78,1-7.99,3.01s-3.32,4.41-3.32,7.19c0,2.82,1.11,5.23,3.32,7.24c2.21,2.01,4.87,3.01,7.99,3.01
		s5.78-1,7.99-3.01c2.21-2.01,3.32-4.42,3.32-7.24c0-2.78-1.11-5.18-3.32-7.19C616.24,423.42,613.57,422.41,610.46,422.41z"/>
	<rect x="599.94" y="452.69" width="20.94" height="190.88"/>
	<path d="M653.33,523.17c3.83,2.21,8.27,3.32,13.32,3.32c5.67,0,10.48-1.3,14.43-3.89c3.95-2.59,6.78-6.03,8.48-10.3h0.79v13.24
		h20.1v-72.9h-20.94v41.86c0.03,3.26-0.63,6-1.99,8.21c-1.36,2.21-3.14,3.88-5.33,5.01c-2.2,1.12-4.56,1.68-7.08,1.68
		c-3.97,0-7.13-1.25-9.49-3.75c-2.36-2.5-3.56-5.9-3.59-10.2v-42.81h-20.94v46.41c0.03,5.7,1.12,10.58,3.27,14.66
		C646.51,517.8,649.5,520.95,653.33,523.17z"/>
	<path d="M789.8,489.76c-3.6-3.23-9.08-5.57-16.42-7.02l-13.66-2.66c-3.51-0.73-5.98-1.69-7.42-2.9c-1.44-1.2-2.16-2.67-2.16-4.41
		c0-2.18,1.11-3.93,3.34-5.24s4.97-1.97,8.21-1.97c2.43,0,4.51,0.39,6.27,1.16c1.75,0.78,3.17,1.8,4.25,3.09
		c1.08,1.28,1.79,2.71,2.11,4.29l19.17-1.14c-0.92-6.71-4.12-12.01-9.61-15.9c-5.49-3.89-13-5.84-22.54-5.84
		c-6.46,0-12.08,0.92-16.88,2.75c-4.8,1.83-8.52,4.44-11.16,7.83c-2.64,3.39-3.96,7.42-3.96,12.1c0,5.44,1.79,9.92,5.38,13.43
		c3.59,3.51,9.07,5.98,16.44,7.4l13.08,2.52c3.28,0.63,5.7,1.54,7.28,2.73c1.57,1.19,2.38,2.7,2.41,4.53
		c-0.03,2.18-1.17,3.96-3.42,5.34c-2.24,1.38-5.2,2.07-8.87,2.07c-3.74,0-6.8-0.77-9.19-2.3c-2.39-1.53-3.9-3.77-4.52-6.72
		l-20.6,1.04c1.02,6.96,4.48,12.46,10.4,16.49c5.92,4.03,13.87,6.05,23.87,6.05c6.55,0,12.35-1,17.38-3.01
		c5.03-2.01,9-4.82,11.9-8.42s4.35-7.8,4.35-12.58C795.21,497.22,793.4,492.98,789.8,489.76z"/>
	<path d="M328.21,593.55c-2.69-2.4-5.87-4.43-9.54-6.07c-3.67-1.65-7.7-2.96-12.09-3.95l-9.04-2.17c-2.2-0.49-4.26-1.09-6.19-1.8
		c-1.93-0.71-3.64-1.55-5.11-2.52c-1.47-0.97-2.63-2.13-3.47-3.48c-0.84-1.35-1.22-2.93-1.16-4.74c0-2.17,0.63-4.12,1.89-5.83
		c1.26-1.71,3.09-3.05,5.48-4.03c2.39-0.97,5.32-1.46,8.8-1.46c5.11,0,9.16,1.1,12.14,3.31c2.98,2.21,4.67,5.3,5.06,9.28h20.4
		c-0.1-6.02-1.7-11.33-4.82-15.9s-7.46-8.15-13.05-10.72c-5.59-2.57-12.12-3.85-19.59-3.85c-7.34,0-13.9,1.28-19.66,3.85
		c-5.77,2.57-10.3,6.14-13.59,10.72c-3.29,4.58-4.92,9.93-4.89,16.05c-0.03,7.47,2.41,13.42,7.33,17.83
		c4.92,4.41,11.62,7.65,20.1,9.73l10.96,2.77c3.67,0.89,6.78,1.88,9.31,2.96c2.54,1.09,4.47,2.4,5.8,3.95
		c1.33,1.55,1.99,3.46,1.99,5.73c0,2.44-0.74,4.59-2.21,6.47c-1.47,1.88-3.55,3.34-6.22,4.39c-2.67,1.05-5.81,1.58-9.41,1.58
		c-3.67,0-6.96-0.57-9.86-1.7c-2.9-1.14-5.21-2.83-6.93-5.09c-1.72-2.25-2.7-5.08-2.93-8.47h-20.6c0.16,7.28,1.93,13.37,5.28,18.3
		c3.36,4.92,8.04,8.63,14.06,11.14c6.01,2.5,13.08,3.75,21.21,3.75c8.19,0,15.2-1.24,21.01-3.73c5.82-2.49,10.27-5.99,13.37-10.52
		c3.1-4.53,4.66-9.88,4.69-16.07c-0.03-4.21-0.79-7.95-2.28-11.21C332.99,598.78,330.9,595.95,328.21,593.55z"/>
	<path d="M391.91,627c-0.98,0.17-1.97,0.26-2.95,0.26c-1.41,0-2.65-0.21-3.71-0.62c-1.07-0.41-1.89-1.13-2.48-2.16
		c-0.59-1.03-0.88-2.48-0.88-4.34v-35.31h14.21v-15.19h-14.21v-22.6h-20.94v22.6h-10.32v15.19h10.32v37.97
		c-0.03,4.78,1,8.73,3.1,11.87c2.1,3.13,5.04,5.44,8.82,6.93c3.78,1.49,8.2,2.14,13.25,1.95c2.72-0.09,5.03-0.36,6.93-0.78
		c1.9-0.43,3.37-0.8,4.42-1.12l-3.29-15.04C393.65,626.69,392.89,626.83,391.91,627z"/>
	<path d="M463.42,611.58c0.03,3.26-0.63,6-1.99,8.21c-1.36,2.21-3.14,3.88-5.33,5.01c-2.2,1.12-4.56,1.68-7.08,1.68
		c-3.97,0-7.13-1.25-9.49-3.75c-2.36-2.5-3.56-5.9-3.59-10.2v-42.81H415v46.41c0.03,5.7,1.12,10.58,3.27,14.66
		c2.15,4.08,5.14,7.23,8.97,9.44c3.83,2.21,8.27,3.32,13.32,3.32c5.67,0,10.48-1.3,14.43-3.89c3.95-2.59,6.78-6.03,8.48-10.3h0.79
		v13.24h20.1v-72.9h-20.94V611.58z"/>
	<path d="M556.27,581.73h-0.64c-0.92-1.96-2.25-3.96-4.01-6c-1.75-2.04-4.05-3.75-6.88-5.13c-2.84-1.38-6.37-2.06-10.59-2.06
		c-5.54,0-10.63,1.38-15.26,4.15c-4.64,2.77-8.35,6.93-11.13,12.48c-2.79,5.55-4.18,12.51-4.18,20.86c0,8.13,1.35,14.99,4.06,20.57
		c2.7,5.58,6.37,9.81,11.01,12.67c4.64,2.86,9.82,4.29,15.56,4.29c4.06,0,7.51-0.65,10.35-1.95c2.83-1.3,5.14-2.93,6.93-4.91
		c1.79-1.98,3.17-3.98,4.15-6h0.88v11.67h20.65v-95.33h-20.89V581.73z M554.82,617.28c-1.26,3.23-3.07,5.73-5.41,7.52
		c-2.34,1.79-5.2,2.68-8.58,2.68c-3.44,0-6.33-0.91-8.68-2.73c-2.34-1.82-4.13-4.35-5.36-7.59c-1.23-3.24-1.84-6.98-1.84-11.22
		c0-4.21,0.61-7.91,1.82-11.11c1.21-3.2,3-5.7,5.36-7.5c2.36-1.8,5.26-2.71,8.7-2.71c3.37,0,6.24,0.87,8.6,2.61
		c2.36,1.74,4.16,4.21,5.41,7.4c1.25,3.2,1.87,6.96,1.87,11.3C556.71,610.27,556.08,614.05,554.82,617.28z"/>
	<path d="M696.47,573.02c-5.56-3.15-12.15-4.72-19.79-4.72c-7.64,0-14.23,1.57-19.79,4.72c-5.55,3.15-9.84,7.55-12.85,13.19
		c-3.02,5.65-4.52,12.24-4.52,19.77c0,7.47,1.51,14.02,4.52,19.67c3.01,5.65,7.3,10.05,12.85,13.19c5.56,3.15,12.15,4.72,19.79,4.72
		c7.63,0,14.23-1.57,19.79-4.72c5.55-3.15,9.84-7.55,12.85-13.19c3.01-5.65,4.52-12.2,4.52-19.67c0-7.53-1.51-14.12-4.52-19.77
		C706.3,580.57,702.02,576.17,696.47,573.02z M690.76,617.18c-1.2,3.32-2.96,5.94-5.28,7.86c-2.33,1.91-5.23,2.87-8.7,2.87
		c-3.51,0-6.45-0.96-8.82-2.87c-2.38-1.91-4.16-4.53-5.36-7.86c-1.2-3.32-1.79-7.1-1.79-11.34c0-4.24,0.6-8.02,1.79-11.34
		c1.2-3.32,2.98-5.95,5.36-7.88c2.37-1.93,5.32-2.9,8.82-2.9c3.47,0,6.37,0.97,8.7,2.9c2.33,1.93,4.09,4.56,5.28,7.88
		c1.2,3.32,1.79,7.1,1.79,11.34C692.56,610.08,691.96,613.86,690.76,617.18z"/>
	<g>
		<path class="st0" d="M786.13,561.07h-7.99l1.5,26.52l-22.28-14.6l-7.99,13.88l23.78,11.92l-23.78,11.92l7.99,13.88l22.28-14.6
			l-1.5,26.52h7.99v21.07c-32.47,0-58.79-26.33-58.79-58.79c0-32.47,26.33-58.79,58.79-58.79V561.07z"/>
		<g>
			<path class="st0" d="M786.13,636.52h7.92L792.61,610l22.28,14.6l7.98-13.89l-23.84-11.92l23.84-11.92l-7.98-13.88l-22.28,14.59
				l1.44-26.51h-7.92"/>
		</g>
	</g>
</g>
</svg>
