<?xml version="1.0" encoding="utf-8"?>
<!-- Generator: Adobe Illustrator 27.0.0, SVG Export Plug-In . SVG Version: 6.00 Build 0)  -->
<svg version="1.1" id="Layer_1" xmlns="http://www.w3.org/2000/svg" xmlns:xlink="http://www.w3.org/1999/xlink" x="0px" y="0px"
	 viewBox="0 0 1080 1080" style="enable-background:new 0 0 1080 1080;" xml:space="preserve">
<style type="text/css">
	.st0{fill:#FFFFFF;}
	.st1{fill:#680DF5;}
</style>
<g>
	<path class="st0" d="M361.26,498.6c-0.41,2.26-1.14,4.27-2.2,6.04c-1.05,1.76-2.38,3.26-3.97,4.49c-1.59,1.23-3.4,2.16-5.45,2.79
		c-2.04,0.63-4.25,0.95-6.64,0.95c-4.25,0-7.99-1.05-11.22-3.14c-3.23-2.1-5.75-5.2-7.54-9.3c-1.79-4.11-2.69-9.18-2.69-15.22
		c0-5.87,0.89-10.87,2.67-14.99s4.29-7.26,7.52-9.43c3.23-2.16,7.03-3.25,11.38-3.25c2.41,0,4.65,0.34,6.72,1.03
		c2.07,0.69,3.9,1.68,5.49,2.98c1.59,1.3,2.89,2.86,3.9,4.69c1.01,1.83,1.69,3.92,2.01,6.26h18c-0.58-4.91-1.88-9.26-3.92-13.07
		c-2.04-3.81-4.68-7.02-7.91-9.66c-3.23-2.63-6.94-4.64-11.12-6.02c-4.18-1.38-8.71-2.07-13.58-2.07c-7.4,0-14.05,1.7-19.97,5.11
		c-5.92,3.41-10.6,8.35-14.05,14.83c-3.45,6.48-5.18,14.34-5.18,23.57c0,9.21,1.71,17.05,5.12,23.53
		c3.41,6.48,8.07,11.43,13.97,14.85c5.9,3.42,12.61,5.13,20.12,5.13c5.4,0,10.24-0.82,14.53-2.46c4.29-1.64,7.99-3.87,11.1-6.7
		c3.11-2.83,5.59-6.04,7.44-9.64c1.85-3.6,3.01-7.34,3.47-11.23L361.26,498.6z"/>
	<path class="st0" d="M431.25,467.49c-0.77-0.18-1.66-0.33-2.67-0.44s-1.96-0.16-2.84-0.16c-3.53,0-6.66,0.97-9.37,2.92
		c-2.71,1.94-4.64,4.81-5.79,8.59h-0.66v-10.63h-16.97v60.94h17.51v-34.48c0-2.49,0.58-4.68,1.75-6.59c1.16-1.9,2.75-3.39,4.77-4.46
		s4.31-1.61,6.88-1.61c1.21,0,2.53,0.09,3.99,0.28c1.45,0.19,2.59,0.4,3.41,0.64V467.49z"/>
	<path class="st0" d="M493.15,473.48c-2.7-2.57-5.85-4.49-9.45-5.77c-3.6-1.28-7.49-1.92-11.65-1.92c-6.19,0-11.58,1.32-16.17,3.97
		c-4.59,2.65-8.14,6.33-10.66,11.07c-2.52,4.73-3.78,10.24-3.78,16.5c0,6.43,1.26,11.99,3.78,16.68c2.52,4.7,6.12,8.32,10.79,10.87
		c4.67,2.55,10.25,3.83,16.75,3.83c5.2,0,9.8-0.77,13.79-2.32s7.25-3.72,9.78-6.51c2.53-2.79,4.21-6.06,5.03-9.82l-16.19-1.03
		c-0.6,1.53-1.48,2.83-2.63,3.89c-1.15,1.06-2.53,1.85-4.15,2.38c-1.62,0.53-3.4,0.79-5.34,0.79c-2.93,0-5.47-0.6-7.6-1.79
		c-2.14-1.19-3.79-2.88-4.95-5.08c-1.16-2.2-1.75-4.8-1.75-7.82v-0.04h42.99v-4.64c0-5.18-0.75-9.71-2.26-13.59
		C497.95,479.26,495.85,476.04,493.15,473.48z M458.77,490.9c0.11-2.19,0.67-4.2,1.73-6.01c1.15-1.97,2.75-3.54,4.79-4.72
		c2.04-1.18,4.39-1.76,7.05-1.76c2.55,0,4.79,0.54,6.72,1.61c1.93,1.07,3.45,2.55,4.54,4.42c1.1,1.88,1.64,4.03,1.64,6.47H458.77z"
		/>
	<path class="st0" d="M563.1,469.75c-3.26-1.85-7.08-2.78-11.46-2.78c-4.69,0-8.67,1.04-11.96,3.11c-3.29,2.08-5.63,4.89-7.03,8.43
		h-0.74v-10.75h-16.68v60.94h17.51v-35.23c0.03-2.62,0.54-4.86,1.54-6.73c1-1.86,2.4-3.29,4.19-4.26c1.79-0.98,3.87-1.47,6.23-1.47
		c3.51,0,6.26,1.05,8.26,3.15c2,2.1,2.99,5.02,2.96,8.75v35.79h17.51v-38.8c0-4.73-0.9-8.81-2.71-12.24
		C568.9,474.24,566.36,471.6,563.1,469.75z"/>
	<path class="st0" d="M598.9,441.7c-2.6,0-4.83,0.84-6.68,2.52s-2.77,3.68-2.77,6.01c0,2.35,0.92,4.37,2.77,6.05
		c1.85,1.68,4.08,2.52,6.68,2.52c2.6,0,4.83-0.84,6.68-2.52c1.85-1.68,2.77-3.7,2.77-6.05c0-2.33-0.92-4.33-2.77-6.01
		C603.73,442.54,601.51,441.7,598.9,441.7z"/>
	<rect x="590.11" y="467.01" class="st0" width="17.51" height="159.57"/>
	<path class="st0" d="M634.74,525.93c3.21,1.85,6.92,2.78,11.14,2.78c4.74,0,8.76-1.08,12.06-3.25c3.3-2.17,5.66-5.04,7.09-8.61
		h0.66v11.07h16.81v-60.94h-17.51v34.99c0.03,2.72-0.53,5.01-1.66,6.86c-1.14,1.85-2.62,3.25-4.46,4.19
		c-1.84,0.94-3.81,1.41-5.92,1.41c-3.32,0-5.96-1.04-7.93-3.13c-1.97-2.09-2.97-4.93-3-8.53v-35.79h-17.51v38.8
		c0.03,4.76,0.94,8.85,2.73,12.26C629.04,521.45,631.54,524.08,634.74,525.93z"/>
	<path class="st0" d="M748.83,498c-3.01-2.7-7.59-4.66-13.73-5.87l-11.42-2.22c-2.93-0.61-5-1.41-6.21-2.42
		c-1.21-1.01-1.81-2.23-1.81-3.69c0-1.83,0.93-3.29,2.79-4.38c1.86-1.1,4.15-1.65,6.86-1.65c2.03,0,3.77,0.32,5.24,0.97
		c1.47,0.65,2.65,1.51,3.55,2.58c0.9,1.07,1.49,2.27,1.77,3.59l16.03-0.95c-0.77-5.61-3.45-10.04-8.03-13.29
		c-4.59-3.25-10.87-4.88-18.84-4.88c-5.4,0-10.1,0.77-14.12,2.3c-4.01,1.53-7.12,3.72-9.33,6.55c-2.21,2.83-3.31,6.2-3.31,10.12
		c0,4.55,1.5,8.29,4.5,11.23c3,2.94,7.58,5,13.75,6.19l10.93,2.1c2.74,0.53,4.77,1.29,6.08,2.28c1.32,0.99,1.99,2.26,2.01,3.79
		c-0.03,1.83-0.98,3.31-2.86,4.46c-1.88,1.15-4.35,1.73-7.42,1.73c-3.12,0-5.69-0.64-7.68-1.92c-2-1.28-3.26-3.15-3.78-5.61
		l-17.22,0.87c0.85,5.82,3.75,10.41,8.69,13.79c4.95,3.37,11.6,5.06,19.95,5.06c5.48,0,10.32-0.84,14.53-2.52
		c4.21-1.68,7.52-4.03,9.95-7.04c2.42-3.02,3.64-6.52,3.64-10.51C753.35,504.24,751.84,500.7,748.83,498z"/>
	<path class="st0" d="M362.95,584.76c-2.25-2.01-4.9-3.7-7.97-5.08c-3.07-1.38-6.44-2.48-10.11-3.3l-7.56-1.82
		c-1.84-0.41-3.56-0.91-5.18-1.51c-1.62-0.59-3.04-1.29-4.27-2.11c-1.23-0.81-2.2-1.78-2.9-2.91c-0.7-1.13-1.02-2.45-0.97-3.96
		c0-1.82,0.53-3.44,1.58-4.87c1.05-1.43,2.58-2.55,4.58-3.36c2-0.81,4.45-1.22,7.36-1.22c4.27,0,7.66,0.92,10.15,2.77
		c2.49,1.84,3.9,4.43,4.23,7.76h17.05c-0.08-5.04-1.42-9.47-4.03-13.29c-2.6-3.83-6.24-6.81-10.91-8.96
		c-4.67-2.15-10.13-3.22-16.38-3.22c-6.14,0-11.62,1.07-16.44,3.22c-4.82,2.15-8.61,5.13-11.36,8.96c-2.75,3.83-4.12,8.3-4.09,13.42
		c-0.03,6.25,2.01,11.22,6.12,14.9c4.11,3.69,9.71,6.4,16.81,8.13l9.16,2.31c3.07,0.74,5.66,1.57,7.79,2.48
		c2.12,0.91,3.74,2.01,4.85,3.3c1.11,1.29,1.66,2.89,1.66,4.79c0,2.04-0.62,3.84-1.85,5.41c-1.23,1.57-2.97,2.79-5.2,3.67
		c-2.23,0.88-4.86,1.32-7.87,1.32c-3.07,0-5.82-0.47-8.24-1.42c-2.42-0.95-4.36-2.37-5.79-4.25c-1.44-1.88-2.25-4.25-2.45-7.08
		h-17.22c0.14,6.08,1.61,11.18,4.42,15.3c2.81,4.11,6.73,7.22,11.75,9.31c5.03,2.09,10.94,3.14,17.73,3.14
		c6.85,0,12.7-1.04,17.57-3.12c4.86-2.08,8.59-5.01,11.18-8.79c2.59-3.78,3.9-8.26,3.92-13.44c-0.03-3.52-0.66-6.65-1.91-9.37
		C366.94,589.14,365.19,586.77,362.95,584.76z"/>
	<path class="st0" d="M416.2,612.73c-0.82,0.15-1.64,0.22-2.47,0.22c-1.18,0-2.21-0.17-3.1-0.52c-0.89-0.34-1.58-0.95-2.08-1.81
		c-0.49-0.86-0.74-2.07-0.74-3.63v-29.52h11.88v-12.7h-11.88v-18.89h-17.51v18.89h-8.63v12.7h8.63v31.74
		c-0.03,3.99,0.83,7.3,2.59,9.92c1.75,2.62,4.21,4.55,7.38,5.79c3.16,1.24,6.86,1.79,11.08,1.63c2.27-0.08,4.21-0.3,5.79-0.66
		c1.59-0.36,2.82-0.67,3.7-0.93l-2.75-12.58C417.65,612.47,417.02,612.59,416.2,612.73z"/>
	<path class="st0" d="M475.98,599.84c0.03,2.72-0.53,5.01-1.67,6.86c-1.14,1.85-2.62,3.25-4.46,4.19c-1.84,0.94-3.81,1.41-5.92,1.41
		c-3.32,0-5.96-1.04-7.93-3.13c-1.97-2.09-2.97-4.93-3-8.53v-35.79H435.5v38.8c0.03,4.76,0.94,8.85,2.73,12.26
		c1.79,3.41,4.29,6.04,7.5,7.9c3.21,1.85,6.92,2.78,11.14,2.78c4.74,0,8.76-1.08,12.06-3.25c3.3-2.17,5.66-5.04,7.09-8.61h0.66
		v11.07h16.81v-60.94h-17.51V599.84z"/>
	<path class="st0" d="M553.6,574.89h-0.53c-0.77-1.64-1.88-3.31-3.35-5.02c-1.47-1.71-3.38-3.13-5.75-4.29
		c-2.37-1.15-5.32-1.73-8.86-1.73c-4.63,0-8.88,1.16-12.76,3.47c-3.88,2.31-6.98,5.79-9.31,10.43c-2.33,4.64-3.49,10.46-3.49,17.44
		c0,6.8,1.13,12.53,3.39,17.2c2.26,4.67,5.33,8.2,9.21,10.59c3.88,2.39,8.21,3.59,13.01,3.59c3.4,0,6.28-0.54,8.65-1.63
		c2.37-1.08,4.3-2.45,5.79-4.11c1.49-1.65,2.65-3.33,3.47-5.02h0.74v9.76h17.26v-79.7H553.6V574.89z M552.39,604.61
		c-1.06,2.7-2.56,4.79-4.52,6.29c-1.96,1.49-4.35,2.24-7.17,2.24c-2.88,0-5.29-0.76-7.25-2.28c-1.96-1.52-3.45-3.64-4.48-6.35
		c-1.03-2.71-1.54-5.84-1.54-9.38c0-3.52,0.51-6.61,1.52-9.28c1.01-2.67,2.51-4.76,4.48-6.27s4.4-2.26,7.27-2.26
		c2.82,0,5.22,0.73,7.19,2.18c1.97,1.45,3.48,3.52,4.52,6.19c1.04,2.67,1.56,5.82,1.56,9.44
		C553.97,598.75,553.44,601.91,552.39,604.61z"/>
	<path class="st0" d="M670.8,567.61c-4.64-2.63-10.16-3.95-16.54-3.95c-6.38,0-11.9,1.32-16.54,3.95
		c-4.64,2.63-8.23,6.31-10.75,11.03c-2.52,4.72-3.78,10.23-3.78,16.52c0,6.24,1.26,11.72,3.78,16.45c2.52,4.72,6.1,8.4,10.75,11.03
		c4.64,2.63,10.16,3.95,16.54,3.95c6.38,0,11.9-1.32,16.54-3.95c4.64-2.63,8.22-6.31,10.75-11.03c2.52-4.72,3.78-10.2,3.78-16.45
		c0-6.29-1.26-11.8-3.78-16.52C679.03,573.92,675.45,570.24,670.8,567.61z M666.04,604.53c-1,2.78-2.47,4.97-4.42,6.57
		c-1.95,1.6-4.37,2.4-7.27,2.4c-2.93,0-5.39-0.8-7.38-2.4c-1.99-1.6-3.48-3.79-4.48-6.57c-1-2.78-1.5-5.94-1.5-9.48
		c0-3.54,0.5-6.71,1.5-9.48c1-2.78,2.49-4.97,4.48-6.59c1.99-1.61,4.44-2.42,7.38-2.42c2.9,0,5.33,0.81,7.27,2.42
		c1.94,1.61,3.42,3.81,4.42,6.59c1,2.78,1.5,5.94,1.5,9.48C667.54,598.59,667.04,601.75,666.04,604.53z"/>
	<g>
		<path class="st1" d="M745.76,557.61h-6.68l1.26,22.17l-18.62-12.21l-6.68,11.6l19.88,9.97l-19.88,9.97l6.68,11.6l18.62-12.21
			l-1.26,22.17h6.68v17.61c-27.14,0-49.15-22.01-49.15-49.15c0-27.14,22.01-49.15,49.15-49.15V557.61z"/>
		<g>
			<path class="st1" d="M745.76,620.69h6.62l-1.2-22.17l18.63,12.21l6.67-11.61l-19.93-9.96l19.93-9.96l-6.67-11.6l-18.63,12.2
				l1.2-22.16h-6.62"/>
		</g>
	</g>
</g>
</svg>
